<svg width="81" height="82" viewBox="0 0 81 82" fill="none" xmlns="http://www.w3.org/2000/svg">
<path d="M70.9 45C70.9 45.3 70.7 45.5 70.4 45.5C70.3 45.5 70.1 45.5 70 45.3L61 35.2C60.9 35.1 60.9 35 60.9 34.9C60.9 34.7 61.1 34.4 61.4 34.4H62.7C62.9 34.4 63 34.5 63.1 34.6L69.3 41.6V34.8C69.3 34.6 69.5 34.3 69.7 34.3H70.6C70.8 34.3 71 34.5 71 34.8V45H70.9ZM57.5 44.7C57.5 44.9 57.3 45.2 57 45.2H50.3C50.1 45.2 49.8 45 49.8 44.7V43.8C49.8 43.6 50 43.3 50.3 43.3H57C57.2 43.3 57.5 43.5 57.5 43.8V44.7ZM57.5 40.2C57.5 40.4 57.3 40.7 57 40.7H50.3C50.1 40.7 49.8 40.5 49.8 40.2V39.3C49.8 39.1 50 38.8 50.3 38.8H57C57.2 38.8 57.5 39 57.5 39.3V40.2ZM57.5 35.7C57.5 35.9 57.3 36.2 57 36.2H50.3C50.1 36.2 49.8 36 49.8 35.7V34.8C49.8 34.6 50 34.3 50.3 34.3H57C57.2 34.3 57.5 34.5 57.5 34.8V35.7ZM47.5 44.7C47.5 44.9 47.3 45.1 47 45.1H45.9C45.7 45.1 45.5 45 45.5 44.8C45.5 44.8 40.5 35.8 40.4 35.7C40.4 35.6 40.3 35.5 40.3 35.5L40.4 35.3L40.9 34.3C41 34.1 41.1 34 41.3 34C41.5 34 41.6 34.1 41.7 34.3L47.4 44.6C47.4 44.4 47.5 44.6 47.5 44.7ZM43.2 29C43.2 29.3 43 29.5 42.7 29.5H42.2C39.3 29.5 37.1 30.4 35.2 32.1C33.5 33.7 32.3 35.8 32 38.3C32 38.5 31.8 38.8 31.5 38.8H30.4C30.2 38.8 29.9 38.6 29.9 38.3C30.2 35.3 31.7 32.7 33.8 30.7C36 28.7 38.8 27.6 41.9 27.6H42.1H42.4C42.7 27.6 42.8 27.8 42.9 28.1L43.2 29ZM27.4 34.2C27.4 34.4 27.2 34.7 26.9 34.7H25.7C25.5 34.7 25.2 34.5 25.2 34.2V33.3C25.2 33.1 25.4 32.8 25.7 32.8H27C27.2 32.8 27.5 33 27.5 33.3V34.2H27.4ZM19.3 34.5L25.5 41.5V37.2C25.5 37 25.7 36.7 26 36.7H26.9C27.1 36.7 27.4 36.9 27.4 37.2V44.8C27.4 45.1 27.2 45.3 26.9 45.3C26.8 45.3 26.6 45.3 26.5 45.1L17.4 35C17.3 34.9 17.3 34.8 17.3 34.7C17.3 34.5 17.5 34.2 17.8 34.2H19C19.1 34.3 19.2 34.4 19.3 34.5ZM14.7 43.5C15.7 43.5 16.6 43.2 17.4 42.6V39.1V39C17.4 38.8 17.6 38.6 17.8 38.6C17.9 38.6 18.1 38.7 18.2 38.8L19 39.8C19.1 39.9 19.2 40 19.2 40.2V43.3C19.2 43.3 19.2 43.5 19 43.6C17.9 44.6 16.3 45.3 14.7 45.3C12.2 45.3 10.2 43.3 10.2 40.9V34.9C10.2 34.6 10.4 34.4 10.7 34.4H11.6C11.8 34.4 12 34.6 12 34.9V40.9C12 42.2 13.2 43.5 14.7 43.5ZM42.9 44.3C43 44.4 43 44.7 42.9 44.8C42.8 45 42.7 45 42.5 45H36.2C36.1 45 35.9 45 35.8 44.9C35.6 44.8 35.6 44.5 35.8 44.3L38.8 38.2C38.9 38 39 37.9 39.3 37.9C39.6 37.9 39.6 38 39.7 38.2L40.2 39.1C40.2 39.1 40.3 39.4 40.3 39.5C40.3 39.6 40.3 39.7 40.2 39.7C40.2 39.8 39.1 41.9 38.5 43.2H42.1C42.2 43.2 42.3 43.2 42.4 43.3C42.5 43.3 42.6 43.5 42.6 43.5L42.9 44.3ZM30 41C30 40.8 30.2 40.5 30.5 40.5H31.6C31.9 40.5 32.1 40.7 32.1 41C32.4 43.5 33.6 45.7 35.3 47.3C37.2 49 39.2 49.8 42.1 49.8H42.6C42.8 49.8 43.1 50 43.1 50.3L42.9 51.2C42.9 51.5 42.7 51.7 42.4 51.7H42.1H42C38.9 51.7 36 50.6 33.9 48.6C31.8 46.6 30.4 44 30 41ZM61 39.2C61.1 38.9 61.2 38.7 61.4 38.7C61.5 38.7 61.7 38.8 61.8 38.9L62.6 39.9C62.7 40 62.8 40.1 62.8 40.3V44.8C62.8 45 62.6 45.3 62.4 45.3H61.5C61.3 45.3 61.1 45.1 61.1 44.8V39.2C61 39.2 61 39.2 61 39.2ZM81 40.6C81 18.2 62.9 0.0999985 40.5 0.0999985C18.1 0.0999985 0 18.2 0 40.6C0 63 18.1 81.1 40.5 81.1C62.9 81.1 81 62.9 81 40.6Z" fill="black"/>
</svg>
